# Blender v2.93.3 OBJ File: 'prism.blend'
# www.blender.org
o Obamium
v 15.000000 -0.015504 1.000000
v 8.004432 11.015504 7.995568
v 8.004432 11.015504 8.004432
v 15.000000 -0.015503 15.000000
v 7.995568 11.015504 7.995568
v 7.995568 11.015504 8.004432
v 8.004432 11.015504 7.995568
v 7.995568 11.015504 7.995568
v 7.995568 11.015504 8.004432
v 8.004432 11.015504 8.004432
v 1.000000 -0.015503 15.000000
v 1.000000 -0.015504 1.000000
v 15.000000 -0.015504 1.000000
v 15.000000 -0.015503 15.000000
v 15.000000 -0.015503 15.000000
v 8.004432 11.015504 8.004432
v 7.995568 11.015504 8.004432
v 1.000000 -0.015503 15.000000
v 8.004432 11.015504 7.995568
v 7.995568 11.015504 7.995568
v 1.000000 -0.015503 15.000000
v 7.995568 11.015504 8.004432
v 7.995568 11.015504 7.995568
v 1.000000 -0.015504 1.000000
v 8.004432 11.015504 8.004432
v 8.004432 11.015504 7.995568
v 15.000000 -0.015504 1.000000
v 8.004432 11.015504 7.995568
v 8.004432 11.015504 8.004432
v 15.000000 -0.015503 15.000000
v 7.995568 11.015504 7.995568
v 7.995568 11.015504 8.004432
v 1.000000 -0.015504 1.000000
v 7.995568 11.015504 7.995568
v 8.004432 11.015504 7.995568
v 15.000000 -0.015504 1.000000
v 7.995568 11.015504 8.004432
v 8.004432 11.015504 8.004432
vt 1.014187 0.594853
vt 1.272398 0.478673
vt 1.255210 0.614907
vt 0.998648 0.580427
vt 1.011427 0.588324
vt 0.716770 0.664286
vt 0.716557 0.664499
vt 0.716557 0.664286
vt 0.075945 0.046169
vt 0.692698 0.394105
vt 0.077508 0.393217
vt 0.384500 0.697207
vt 0.694273 1.001987
vt 0.083335 0.997901
vt 1.070437 0.001825
vt 0.908023 -0.035691
vt 0.850490 0.272384
vt 0.385234 0.695431
vt 0.998132 0.697369
vt 0.696569 1.002342
vt 1.080546 0.182110
vt 1.040007 0.097524
vt 1.126224 0.138281
vt 0.385234 0.694431
vt 0.077819 0.393528
vt 0.690319 0.395658
vt 1.096171 0.511483
vt 1.232195 0.109846
vt 1.282474 0.369963
vt 0.385068 0.694810
vt 0.693256 0.400166
vt 0.997152 0.697972
vt 1.281375 0.872939
vt 1.158023 0.772368
vt 1.003615 0.892166
vt 1.007659 0.597613
vt 0.716770 0.664499
vt 0.688010 0.045281
vt 1.115750 0.118166
vt 1.286460 0.279074
vt 0.857938 0.055111
vt 0.835784 0.021460
vt 1.018046 0.192767
vt 1.155944 0.178719
vt 1.199296 0.242500
vt 1.036518 0.227499
vt 0.905944 0.334913
vt 1.311518 0.437867
vt 1.158335 0.992107
vt 1.025125 1.050559
vt 1.267034 1.098613
vn 0.8445 0.5355 0.0000
vn 0.8445 0.5356 0.0000
vn 0.0000 1.0000 0.0000
vn 0.0000 -1.0000 0.0000
vn 0.0000 0.5356 0.8445
vn -0.8445 0.5356 0.0000
vn 0.0000 0.5356 -0.8445
vn 0.0000 0.5357 -0.8444
s 1
f 2/1/1 4/2/2 1/3/2
f 2/1/3 6/4/3 3/5/3
f 8/6/3 10/7/3 7/8/3
f 12/9/4 14/10/4 11/11/4
f 16/12/5 18/13/5 15/14/5
f 16/15/3 20/16/3 17/17/3
f 22/18/6 24/19/6 21/20/6
f 22/21/3 26/22/3 23/23/3
f 28/24/1 30/25/2 27/26/2
f 28/27/3 32/28/3 29/29/3
f 34/30/7 36/31/7 33/32/7
f 34/33/3 38/34/3 35/35/3
f 2/1/1 3/5/1 4/2/2
f 2/1/3 5/36/3 6/4/3
f 8/6/3 9/37/3 10/7/3
f 12/9/4 13/38/4 14/10/4
f 16/39/5 17/17/5 18/40/5
f 16/41/3 19/42/3 20/16/3
f 22/43/6 23/23/6 24/44/6
f 22/45/3 25/46/3 26/22/3
f 28/27/1 29/29/1 30/47/2
f 28/27/3 31/48/3 32/28/3
f 34/33/7 35/35/8 36/49/7
f 34/50/3 37/51/3 38/34/3
